<svg id="visual" viewBox="0 0 1280 720" width="1280" height="720" xmlns="http://www.w3.org/2000/svg" xmlns:xlink="http://www.w3.org/1999/xlink" version="1.1"><g stroke-width="1" stroke-linejoin="bevel"><path d="M625 359L607 252L536 389Z" fill="#112e42" stroke="#112e42"></path><path d="M607 252L520 207L536 389Z" fill="#15384f" stroke="#15384f"></path><path d="M520 207L415 259L536 389Z" fill="#297ea6" stroke="#297ea6"></path><path d="M415 259L408 373L536 389Z" fill="#15384f" stroke="#15384f"></path><path d="M408 373L474 466L536 389Z" fill="#277297" stroke="#277297"></path><path d="M536 389L640 511L625 359Z" fill="#00101c" stroke="#00101c"></path><path d="M474 466L640 511L536 389Z" fill="#0c2435" stroke="#0c2435"></path><path d="M653 88L543 83L520 207Z" fill="#246688" stroke="#246688"></path><path d="M520 207L394 118L415 259Z" fill="#081a28" stroke="#081a28"></path><path d="M799 398L794 261L625 359Z" fill="#15384f" stroke="#15384f"></path><path d="M625 359L794 261L607 252Z" fill="#246688" stroke="#246688"></path><path d="M607 252L653 88L520 207Z" fill="#15384f" stroke="#15384f"></path><path d="M784 158L653 88L607 252Z" fill="#00101c" stroke="#00101c"></path><path d="M408 373L420 517L474 466Z" fill="#081a28" stroke="#081a28"></path><path d="M474 466L541 628L640 511Z" fill="#246688" stroke="#246688"></path><path d="M768 487L799 398L625 359Z" fill="#0c2435" stroke="#0c2435"></path><path d="M543 83L394 118L520 207Z" fill="#19435d" stroke="#19435d"></path><path d="M415 259L222 369L408 373Z" fill="#0c2435" stroke="#0c2435"></path><path d="M640 511L768 487L625 359Z" fill="#0c2435" stroke="#0c2435"></path><path d="M794 261L784 158L607 252Z" fill="#081a28" stroke="#081a28"></path><path d="M420 517L541 628L474 466Z" fill="#0c2435" stroke="#0c2435"></path><path d="M640 511L729 623L768 487Z" fill="#205a7a" stroke="#205a7a"></path><path d="M653 88L626 0L543 83Z" fill="#246688" stroke="#246688"></path><path d="M543 83L492 0L394 118Z" fill="#297ea6" stroke="#297ea6"></path><path d="M744 0L626 0L653 88Z" fill="#277297" stroke="#277297"></path><path d="M626 0L492 0L543 83Z" fill="#277297" stroke="#277297"></path><path d="M799 398L881 271L794 261Z" fill="#246688" stroke="#246688"></path><path d="M794 261L881 271L784 158Z" fill="#1d4e6b" stroke="#1d4e6b"></path><path d="M933 396L881 271L799 398Z" fill="#00101c" stroke="#00101c"></path><path d="M541 628L664 625L640 511Z" fill="#1d4e6b" stroke="#1d4e6b"></path><path d="M294 85L228 234L394 118Z" fill="#277297" stroke="#277297"></path><path d="M394 118L228 234L415 259Z" fill="#277297" stroke="#277297"></path><path d="M408 373L232 469L420 517Z" fill="#112e42" stroke="#112e42"></path><path d="M228 234L222 369L415 259Z" fill="#277297" stroke="#277297"></path><path d="M420 517L345 629L541 628Z" fill="#081a28" stroke="#081a28"></path><path d="M664 625L729 623L640 511Z" fill="#112e42" stroke="#112e42"></path><path d="M897 506L933 396L799 398Z" fill="#0c2435" stroke="#0c2435"></path><path d="M353 0L294 85L394 118Z" fill="#00101c" stroke="#00101c"></path><path d="M881 271L870 126L784 158Z" fill="#00101c" stroke="#00101c"></path><path d="M784 158L744 0L653 88Z" fill="#1d4e6b" stroke="#1d4e6b"></path><path d="M222 369L232 469L408 373Z" fill="#0c2435" stroke="#0c2435"></path><path d="M870 126L744 0L784 158Z" fill="#00101c" stroke="#00101c"></path><path d="M492 0L353 0L394 118Z" fill="#1d4e6b" stroke="#1d4e6b"></path><path d="M285 619L345 629L420 517Z" fill="#297ea6" stroke="#297ea6"></path><path d="M897 506L799 398L768 487Z" fill="#15384f" stroke="#15384f"></path><path d="M881 271L1027 276L870 126Z" fill="#297ea6" stroke="#297ea6"></path><path d="M895 587L897 506L768 487Z" fill="#297ea6" stroke="#297ea6"></path><path d="M541 628L653 720L664 625Z" fill="#00101c" stroke="#00101c"></path><path d="M664 625L653 720L729 623Z" fill="#277297" stroke="#277297"></path><path d="M357 720L546 720L541 628Z" fill="#15384f" stroke="#15384f"></path><path d="M232 469L285 619L420 517Z" fill="#112e42" stroke="#112e42"></path><path d="M345 629L357 720L541 628Z" fill="#19435d" stroke="#19435d"></path><path d="M546 720L653 720L541 628Z" fill="#277297" stroke="#277297"></path><path d="M729 623L895 587L768 487Z" fill="#15384f" stroke="#15384f"></path><path d="M353 0L288 0L294 85Z" fill="#112e42" stroke="#112e42"></path><path d="M107 93L88 255L228 234Z" fill="#081a28" stroke="#081a28"></path><path d="M800 720L895 587L729 623Z" fill="#15384f" stroke="#15384f"></path><path d="M897 506L994 450L933 396Z" fill="#15384f" stroke="#15384f"></path><path d="M1034 112L862 0L870 126Z" fill="#112e42" stroke="#112e42"></path><path d="M870 126L862 0L744 0Z" fill="#081a28" stroke="#081a28"></path><path d="M222 369L140 487L232 469Z" fill="#205a7a" stroke="#205a7a"></path><path d="M232 469L140 487L285 619Z" fill="#081a28" stroke="#081a28"></path><path d="M228 234L121 349L222 369Z" fill="#19435d" stroke="#19435d"></path><path d="M88 255L121 349L228 234Z" fill="#277297" stroke="#277297"></path><path d="M275 720L357 720L345 629Z" fill="#15384f" stroke="#15384f"></path><path d="M1035 593L994 450L897 506Z" fill="#0c2435" stroke="#0c2435"></path><path d="M933 396L1027 276L881 271Z" fill="#1d4e6b" stroke="#1d4e6b"></path><path d="M121 349L140 487L222 369Z" fill="#15384f" stroke="#15384f"></path><path d="M285 619L275 720L345 629Z" fill="#297ea6" stroke="#297ea6"></path><path d="M1035 334L1027 276L933 396Z" fill="#1d4e6b" stroke="#1d4e6b"></path><path d="M895 587L1035 593L897 506Z" fill="#1d4e6b" stroke="#1d4e6b"></path><path d="M653 720L800 720L729 623Z" fill="#00101c" stroke="#00101c"></path><path d="M994 450L1035 334L933 396Z" fill="#297ea6" stroke="#297ea6"></path><path d="M107 93L228 234L294 85Z" fill="#1d4e6b" stroke="#1d4e6b"></path><path d="M0 443L91 568L140 487Z" fill="#0c2435" stroke="#0c2435"></path><path d="M119 720L275 720L285 619Z" fill="#19435d" stroke="#19435d"></path><path d="M143 0L107 93L294 85Z" fill="#15384f" stroke="#15384f"></path><path d="M1027 276L1034 112L870 126Z" fill="#246688" stroke="#246688"></path><path d="M1132 230L1034 112L1027 276Z" fill="#297ea6" stroke="#297ea6"></path><path d="M800 720L890 720L895 587Z" fill="#277297" stroke="#277297"></path><path d="M288 0L143 0L294 85Z" fill="#205a7a" stroke="#205a7a"></path><path d="M0 443L140 487L121 349Z" fill="#00101c" stroke="#00101c"></path><path d="M140 487L91 568L285 619Z" fill="#19435d" stroke="#19435d"></path><path d="M1024 720L1035 593L895 587Z" fill="#19435d" stroke="#19435d"></path><path d="M994 450L1114 343L1035 334Z" fill="#081a28" stroke="#081a28"></path><path d="M1157 442L1114 343L994 450Z" fill="#0c2435" stroke="#0c2435"></path><path d="M1035 334L1114 343L1027 276Z" fill="#19435d" stroke="#19435d"></path><path d="M88 255L0 345L121 349Z" fill="#15384f" stroke="#15384f"></path><path d="M0 263L0 345L88 255Z" fill="#277297" stroke="#277297"></path><path d="M0 263L88 255L0 117Z" fill="#0c2435" stroke="#0c2435"></path><path d="M0 117L88 255L107 93Z" fill="#246688" stroke="#246688"></path><path d="M0 345L0 443L121 349Z" fill="#19435d" stroke="#19435d"></path><path d="M1114 343L1132 230L1027 276Z" fill="#081a28" stroke="#081a28"></path><path d="M1126 113L1058 0L1034 112Z" fill="#0c2435" stroke="#0c2435"></path><path d="M1034 112L1058 0L862 0Z" fill="#112e42" stroke="#112e42"></path><path d="M0 0L0 117L107 93Z" fill="#205a7a" stroke="#205a7a"></path><path d="M91 568L119 720L285 619Z" fill="#081a28" stroke="#081a28"></path><path d="M0 587L119 720L91 568Z" fill="#081a28" stroke="#081a28"></path><path d="M1132 230L1126 113L1034 112Z" fill="#19435d" stroke="#19435d"></path><path d="M1114 343L1280 375L1132 230Z" fill="#15384f" stroke="#15384f"></path><path d="M1132 230L1280 201L1126 113Z" fill="#112e42" stroke="#112e42"></path><path d="M1035 593L1157 442L994 450Z" fill="#081a28" stroke="#081a28"></path><path d="M890 720L1024 720L895 587Z" fill="#246688" stroke="#246688"></path><path d="M1035 593L1151 598L1157 442Z" fill="#15384f" stroke="#15384f"></path><path d="M0 443L0 587L91 568Z" fill="#00101c" stroke="#00101c"></path><path d="M143 0L0 0L107 93Z" fill="#205a7a" stroke="#205a7a"></path><path d="M1280 0L1122 0L1126 113Z" fill="#081a28" stroke="#081a28"></path><path d="M1126 113L1122 0L1058 0Z" fill="#00101c" stroke="#00101c"></path><path d="M1144 720L1151 598L1035 593Z" fill="#277297" stroke="#277297"></path><path d="M0 587L0 720L119 720Z" fill="#081a28" stroke="#081a28"></path><path d="M1024 720L1144 720L1035 593Z" fill="#00101c" stroke="#00101c"></path><path d="M1280 497L1280 375L1157 442Z" fill="#15384f" stroke="#15384f"></path><path d="M1157 442L1280 375L1114 343Z" fill="#00101c" stroke="#00101c"></path><path d="M1280 497L1157 442L1151 598Z" fill="#297ea6" stroke="#297ea6"></path><path d="M1280 375L1280 201L1132 230Z" fill="#246688" stroke="#246688"></path><path d="M1280 636L1280 497L1151 598Z" fill="#246688" stroke="#246688"></path><path d="M1280 201L1280 127L1126 113Z" fill="#277297" stroke="#277297"></path><path d="M1280 127L1280 0L1126 113Z" fill="#0c2435" stroke="#0c2435"></path><path d="M1144 720L1280 636L1151 598Z" fill="#277297" stroke="#277297"></path><path d="M1144 720L1280 720L1280 636Z" fill="#112e42" stroke="#112e42"></path></g></svg>